<svg width="80" height="80" viewBox="0 0 80 80" fill="none" xmlns="http://www.w3.org/2000/svg">
<path d="M35.0015 64.0075V48.69L21.7115 56.3583C20.4809 57.0361 19.2159 57.2195 17.9165 56.9083C16.617 56.5972 15.6218 55.8264 14.9307 54.5958C14.2534 53.3653 14.0737 52.0864 14.3915 50.7592C14.7087 49.432 15.4829 48.4228 16.714 47.7317L30.0232 40L16.8165 32.3317C15.5859 31.6539 14.7948 30.6547 14.4432 29.3342C14.0909 28.0136 14.2534 26.7381 14.9307 25.5075C15.6218 24.2897 16.6204 23.5189 17.9265 23.195C19.2326 22.8706 20.5009 23.0536 21.7315 23.7442L35.0015 31.3933V15.9725C35.0015 14.5753 35.482 13.3964 36.4432 12.4358C37.4037 11.4747 38.5893 10.9942 39.9998 10.9942C41.4104 10.9942 42.5959 11.4747 43.5565 12.4358C44.5176 13.3964 44.9982 14.5753 44.9982 15.9725V31.3933L58.2882 23.725C59.5187 23.0472 60.7837 22.8672 62.0832 23.185C63.3826 23.5022 64.3712 24.2764 65.049 25.5075C65.7395 26.7381 65.912 28.0136 65.5665 29.3342C65.2215 30.6547 64.4334 31.6539 63.2023 32.3317L49.9965 40L63.2857 47.7317C64.5168 48.4228 65.2909 49.432 65.6082 50.7592C65.9259 52.0864 65.7395 53.3586 65.049 54.5758C64.3712 55.807 63.3826 56.5811 62.0832 56.8983C60.7837 57.2161 59.5187 57.0361 58.2882 56.3583L44.9982 48.69V64.0075C44.9982 65.4181 44.5176 66.6036 43.5565 67.5642C42.5959 68.5253 41.4104 69.0058 39.9998 69.0058C38.5893 69.0058 37.4037 68.5253 36.4432 67.5642C35.482 66.6036 35.0015 65.4181 35.0015 64.0075Z" fill="#03624C"/>
</svg>
